<?xml version="1.0" encoding="UTF-8" standalone="no"?>
<!-- Created with Inkscape (http://www.inkscape.org/) -->

<svg
   version="1.1"
   id="svg5563"
   width="273"
   height="154"
   viewBox="0 0 273 154"
   sodipodi:docname="AVH-Video-Tool-Logo-White.svg"
   inkscape:version="1.2.2 (b0a8486541, 2022-12-01)"
   xmlns:inkscape="http://www.inkscape.org/namespaces/inkscape"
   xmlns:sodipodi="http://sodipodi.sourceforge.net/DTD/sodipodi-0.dtd"
   xmlns="http://www.w3.org/2000/svg"
   xmlns:svg="http://www.w3.org/2000/svg">
  <defs
     id="defs5567" />
  <sodipodi:namedview
     id="namedview5565"
     pagecolor="#505050"
     bordercolor="#eeeeee"
     borderopacity="1"
     inkscape:showpageshadow="0"
     inkscape:pageopacity="0"
     inkscape:pagecheckerboard="0"
     inkscape:deskcolor="#505050"
     showgrid="false"
     inkscape:zoom="3.3127823"
     inkscape:cx="54.033131"
     inkscape:cy="62.18338"
     inkscape:window-width="1920"
     inkscape:window-height="1050"
     inkscape:window-x="0"
     inkscape:window-y="0"
     inkscape:window-maximized="1"
     inkscape:current-layer="g5569" />
  <g
     inkscape:groupmode="layer"
     inkscape:label="Image"
     id="g5569">
    <path
       style="fill:#ffffff"
       d="M 136.5,154 H 1.65e-6 V 122 90.000004 H 136.5 273 V 122 154 Z M 32.258521,135.80301 36.333491,135.5 l 3.84479,-11.5 3.8448,-11.5 0.55585,-1.75 0.55585,-1.75 h -3.94817 -3.94816 l -2.34809,9 -2.3481,9 h -0.54374 -0.54375 l -1.22967,-5.25 -1.22968,-5.25 -1.04471,-3.75 -1.04472,-3.75 h -4.05998 -4.05999 l 0.67679,1.75 0.67678,1.75 3.54538,11 3.54538,11 0.47661,0.80301 0.4766,0.80302 z M 52.500001,136 h 3.5 V 122.5 109 h -3.5 -3.5 v 13.5 13.5 z m 15.75,-0.002 6.25,-0.002 3.5,-1.74844 3.5,-1.74845 1.748446,-3.5 1.748446,-3.5 0.0016,-3.79966 0.0015,-3.79877 -1.566418,-3.02912 -1.566417,-3.02912 -3.401464,-1.42122 L 75.06423,109 h -6.532117 -6.53212 V 122.5 136 Z M 71.266807,130 h -2.350936 l 0.29207,-7.75 0.29206,-7.75 2.496101,0.28182 2.496101,0.28181 1.503899,1.5039 1.503899,1.5039 v 4.5449 4.54489 l -1.94113,1.41939 L 73.617742,130 Z m 26.733194,6 H 106 v -3 -3 h -4.5 -4.499999 v -2.4425 -2.4425 l 4.249999,-0.3075 4.25,-0.3075 0.31642,-2.75 0.31642,-2.75 h -4.63597 -4.635971 L 97.18045,116.75 97.500001,114.5 101.75,114.1925 106,113.885 V 111.4425 109 h -7.999999 -8 v 13.5 13.5 z m 25.149999,-0.004 5.35,-0.004 3.18863,-1.94424 3.18864,-1.94424 1.05579,-3.80202 1.05579,-3.80202 0.006,-2.78212 0.006,-2.78212 -1.41647,-3.3901 -1.41648,-3.3901 -2.52084,-1.65172 -2.52084,-1.65171 -4.31268,-0.15955 -4.31269,-0.15955 -3.29716,1.37434 -3.29716,1.37434 -1.45284,2.80948 -1.45284,2.80949 v 6.14966 6.14966 l 3.4,3.4 3.4,3.4 5.35,-0.004 z m 1.85,-5.7988 -1.5,0.50792 -1.5,-0.46772 -1.5,-0.46773 -1.25,-1.57609 -1.25,-1.5761 v -4.30887 -4.30887 l 2,-2 2,-2 h 1.84501 1.84501 l 1.65499,1.82874 1.65499,1.82874 v 5.04882 5.04881 l -1.25,0.96721 -1.25,0.96721 z M 160.5,136 h 3.43234 l 0.28383,-10.71561 0.28383,-10.71562 3,-0.0344 3,-0.0344 0.31642,-2.75 0.31642,-2.75 H 160.5 149.86716 l 0.31642,2.75 0.31642,2.75 3,0.0344 3,0.0344 0.28383,10.71562 L 157.06766,136 Z m 27.23422,-0.004 5.23423,0.004 3.19121,-2.85135 3.19122,-2.85135 0.45744,-6.32416 0.45745,-6.32416 -1.75147,-3.25229 -1.75148,-3.25229 -3.13141,-1.30568 -3.13141,-1.30569 -4.31269,0.15955 -4.31268,0.15955 -2.52084,1.65171 -2.52084,1.65172 -1.41648,3.3901 -1.41647,3.3901 v 3.3829 3.38289 l 1.13065,3.24338 1.13064,3.24337 3.11936,1.90211 3.11935,1.90211 5.23422,0.004 z m 0.0124,-5.45251 -1.41698,0.54374 -2.31492,-1.8745 -2.31491,-1.8745 -0.0999,-4.56383 -0.0999,-4.56384 1.90499,-2.10541 1.90499,-2.10541 h 1.84501 1.84501 l 2,2 2,2 v 3.45295 3.45294 l -1.16052,2.54706 -1.16051,2.54705 h -0.7577 -0.7577 l -1.41697,0.54375 z M 216.95068,136 h 4.91912 l 2.56464,-0.97507 2.56464,-0.97508 1.99672,-3.27492 1.99672,-3.27493 0.004,-5.10212 0.004,-5.10211 -2.27993,-3.39789 -2.27993,-3.39788 -4.1233,-1.3146 -4.1233,-1.3146 -3.9119,1.05336 -3.9119,1.05337 -2.43487,2.5918 -2.43487,2.5918 v 7.50146 7.50147 l 3.26578,2.91797 3.26577,2.91797 h 4.91913 z m 0.78136,-5 h -0.82295 L 214.45455,128.54545 212,126.09091 v -2.98036 -2.98035 l 0.94272,-2.47953 0.94271,-2.47953 2.05729,-0.65296 2.05728,-0.65296 1.93822,0.61517 1.93821,0.61517 1.14048,3.45568 1.14048,3.45568 -0.65788,2.9953 -0.65787,2.9953 -2.14333,1.50124 L 218.55499,131 Z M 245,136 h 9 v -3 -3 h -5 -5 V 119.5 109 h -4 -4 V 122.5 136 Z M 89.418348,85.540095 l -6.918347,0.451953 -4.549439,-1.290509 -4.549438,-1.290509 -3.513283,-2.171331 -3.51329,-2.171332 -1.12443,-2.284181 -1.12442,-2.284182 -0.58832,-2.117918 -0.58831,-2.117918 1.08908,-2.882082 1.08909,-2.882082 2.6586,-2.786666 2.658599,-2.786666 5.027781,-1.420268 5.02778,-1.420268 8.5,-1.05241 8.5,-1.052409 3.237849,-0.53369 3.23784,-0.533689 1.11254,-2.078802 1.11255,-2.078801 -2.12817,-2.128166 -2.12817,-2.128165 h -5.081823 -5.081828 l -2.640394,3 -2.640394,3 -8.25,-0.290442 -8.25,-0.290443 V 48.107445 46.29577 l 2.288702,-3.397883 2.288701,-3.397883 4.03728,-2.22893 4.03728,-2.228931 7.424018,-1.059794 7.424019,-1.059795 3.571779,0.596512 3.57177,0.596512 9.92823,24.130873 9.92822,24.130872 0.33333,0.811341 0.33334,0.81134 H 115.58333 106 v -1.84709 -1.84709 l -4.83165,2.391159 -4.831656,2.391158 z m 5.027573,-10.540091 h 5.332516 l 2.209883,-1.789461 2.20989,-1.78946 0.54731,-4.855695 0.54731,-4.855695 -2.39642,0.57688 -2.39641,0.576881 -3.999999,0.701923 -4,0.701924 -2.622896,1.326303 -2.622896,1.326304 -0.516567,1.975356 -0.516567,1.975355 1.446167,2.064693 1.446167,2.064692 z m 78.804079,9.190983 -0.75,0.309017 -10.07602,-0.5 -10.07602,-0.5 8.81235,-21 8.81235,-21 3.39467,-3.154397 3.39466,-3.154396 5.37537,-1.115923 5.37537,-1.115923 5.3736,1.019082 5.3736,1.019082 3.40112,2.102009 3.40112,2.102009 2.19431,4.149229 2.19431,4.149228 0.36998,18.25 0.36998,18.25 H 200.09537 190 l -0.0153,-16.25 -0.0153,-16.25 -0.73468,-1.100296 -0.73469,-1.100296 -2.18426,-1.149704 -2.18426,-1.149704 h -3.06574 -3.06574 l -2,2 -2,2 V 67.440987 83.88197 Z m -34.33725,-18.193267 -0.58725,0.0023 -5.30163,-14.25 -5.30163,-14.25 -0.46811,-1.25 -0.46811,-1.25 h 11.68032 11.68031 l -0.32333,1.255771 -0.32332,1.255772 -5,14.241944 -5,14.241944 -0.58725,0.0023 z m 25.53878,-33.212857 -9.04848,0.284859 -0.70152,-0.701526 L 154,31.666671 V 15.83334 5.0000003e-8 h 10.02477 10.02477 L 173.77477,16.25 173.5,32.500004 Z M 157,31.000004 h 1 v -0.440983 -0.440983 l -1,-0.618034 -1,-0.618034 v 1.059017 1.059017 z m 13.94098,0 H 172 v -1 V 29 h -0.44098 -0.44099 l -0.61803,1.000004 -0.61803,1 z M 156.44098,27 h 0.44099 L 157.5,26 158.11803,25 H 157.05902 156 v 1 1 z m 15.11804,0 H 172 v -1 -1 h -1.05902 -1.05901 l 0.61803,1 0.61803,1 z M 157,22 h 1 v -1 -1 h -1 -1 v 1 1 z m 14.55902,0 H 172 v -1 -1 h -1.05902 -1.05901 l 0.61803,1 0.61803,1 z M 157,17 h 1 V 16.55902 16.11804 L 157,15.5 156,14.88197 V 15.94099 17 Z m 13.94098,0 H 172 v -1 -1 h -0.44098 -0.44099 l -0.61803,1 -0.61803,1 z m -14.5,-4 h 0.44099 l 0.57532,-0.9309 0.57533,-0.9309 -1.01631,-0.62811 L 156,9.8819699 V 11.44099 13 Z m 15.11804,0 H 172 V 11.44099 9.8819699 l -1.01631,0.6281201 -1.01631,0.62811 0.57533,0.9309 L 171.11803,13 Z M 157,8.0000001 h 1 v -1 -1 h -1 -1 v 1 1 z m 14.55902,0 H 172 v -1 -1 h -1.05902 -1.05901 l 0.61803,1 0.61803,1 z m -14.55902,-5 h 1 v -0.44098 -0.44098 l -1,-0.61804 -1,-0.61803005 v 1.05902005 1.05901 z m 13.94098,0 H 172 v -1 -1 h -0.44098 -0.44099 l -0.61803,1 -0.61803,1 z"
       id="path5591" />
  </g>
</svg>
